<?xml version="1.0" standalone="no"?>
<!DOCTYPE svg PUBLIC "-//W3C//DTD SVG 20010904//EN"
 "http://www.w3.org/TR/2001/REC-SVG-20010904/DTD/svg10.dtd">
<svg version="1.0" xmlns="http://www.w3.org/2000/svg"
 width="700.000000pt" height="700.000000pt" viewBox="0 0 700.000000 700.000000"
 preserveAspectRatio="xMidYMid meet">
<metadata>
Created by potrace 1.14, written by Peter Selinger 2001-2017
</metadata>
<g transform="translate(0.000000,700.000000) scale(0.100000,-0.100000)"
fill="#000000" stroke="none">
<path d="M0 3500 l0 -3500 3500 0 3500 0 0 3500 0 3500 -3500 0 -3500 0 0
-3500z m4179 1443 l51 -57 0 -272 c0 -234 2 -275 16 -288 37 -38 50 -27 383
329 l323 345 307 0 c168 0 311 -4 316 -8 6 -4 58 -57 118 -118 l107 -111 0
-1361 c0 -1224 -2 -1362 -16 -1376 -13 -14 -54 -16 -298 -16 -206 0 -285 3
-294 12 -9 9 -12 97 -12 337 0 288 -2 326 -17 343 -37 41 -47 32 -383 -342
l-323 -360 -298 0 c-163 0 -304 3 -313 6 -46 18 -22 48 636 802 358 411 664
762 680 780 l28 33 0 336 c0 332 0 337 -22 360 -21 23 -53 29 -74 15 -6 -4
-459 -522 -1008 -1152 -549 -630 -1007 -1153 -1018 -1163 -18 -15 -50 -17
-347 -17 -179 0 -332 4 -339 9 -8 4 -12 19 -10 33 2 16 241 301 664 792 l661
766 6 87 c4 49 8 204 9 346 3 249 2 259 -17 273 -44 32 -65 29 -110 -17 -24
-24 -473 -539 -999 -1144 -736 -847 -965 -1105 -998 -1123 l-43 -23 -350 7
c-302 5 -352 8 -362 22 -7 9 -13 19 -13 24 0 6 2303 2598 2538 2856 l84 92
343 0 343 0 51 -57z"/>
</g>
</svg>
